<?xml version="1.0" encoding="utf-8"?>
<!-- Generator: Adobe Illustrator 27.5.0, SVG Export Plug-In . SVG Version: 6.00 Build 0)  -->
<svg version="1.1" xmlns="http://www.w3.org/2000/svg" xmlns:xlink="http://www.w3.org/1999/xlink" x="0px" y="0px"
	 viewBox="0 0 500 500" style="enable-background:new 0 0 500 500;" xml:space="preserve">
<g id="BACKGROUND">
	<rect style="fill:#FFFFFF;" width="500" height="500"/>
</g>
<g id="OBJECTS">
	<path style="opacity:0.43;fill:#ACC3EB;" d="M433.968,205.494c-0.116-11.57-1.306-23.137-3.728-34.451
		c-1.859-8.041-4.098-16.01-7.299-23.61c-3.118-7.614-6.765-15.017-11.199-21.914c-8.737-13.865-19.797-26.111-32.43-36.225
		c-6.296-5.084-12.982-9.644-19.941-13.693c-3.468-2.044-7.032-3.918-10.649-5.667c-3.628-1.737-7.291-3.361-11.107-4.701
		c-0.247-0.086-0.523,0.033-0.626,0.277c-0.107,0.254,0.012,0.548,0.266,0.655l0.018,0.008c3.635,1.537,7.183,3.378,10.644,5.309
		c3.46,1.947,6.852,4.01,10.136,6.231c6.59,4.404,12.853,9.273,18.67,14.602c11.681,10.605,21.555,23.064,29.02,36.727
		c2.106,3.767,3.957,7.661,5.619,11.629C380.019,95.137,319.512,64.286,250,64.286c-60.039,0-113.36,23.017-146.977,58.628
		c4.625-10.055,10.425-19.592,17.634-28.111c10.356-12.591,23.778-22.65,38.652-30.058l0.01-0.005
		c0.227-0.114,0.335-0.383,0.242-0.625c-0.098-0.258-0.388-0.388-0.646-0.289c-15.618,5.955-30.45,14.881-42.57,26.984
		c-12.287,11.935-21.82,26.638-28.977,42.294c-3.758,8.413-6.866,17.109-9.4,25.972C70.15,175.44,65.854,193.2,65.854,211.766
		c0,33.081,13.6,63.617,36.565,88.22H397.58c22.966-24.603,36.565-55.139,36.565-88.22
		C434.145,209.664,434.077,207.574,433.968,205.494z"/>
	<g>
		<g>
			<path style="fill:#E8EBE4;" d="M131.042,264.737c5.966-13.982,9.294-30.934,8.929-49.158
				c-0.592-29.414-10.664-55.155-25.482-70.168c-5.353-5.425-10.883,12.387-16.908,27.471c-3.986,10.001-8.175,18.802-12.678,18.893
				c-13.189,0.265-26.34-52.513-35.527-40.168c-11.819,15.862-19.086,39.674-18.55,66.166c0.946,47.058,26.144,84.715,56.282,84.114
				C105.576,301.522,121.618,286.87,131.042,264.737z M53.326,202.354c-6.049,0.127-11.048-4.687-11.174-10.737
				c-0.124-6.036,4.687-11.047,10.739-11.161c6.05-0.127,11.048,4.687,11.164,10.717C64.176,197.232,59.378,202.241,53.326,202.354z
				"/>
			<path style="fill:#D8DBD5;" d="M53.326,202.354c-6.049,0.127-11.048-4.687-11.174-10.737c-0.06-2.986,1.082-5.723,2.996-7.73
				c-0.734,1.499-1.137,3.203-1.099,4.993c0.127,6.049,5.125,10.863,11.174,10.736c3.05-0.064,5.783-1.358,7.731-3.414
				C61.209,199.775,57.58,202.272,53.326,202.354z"/>
			<path style="fill:#EFF2EB;" d="M87.109,301.889c-30.139,0.601-55.337-37.057-56.282-84.114
				c-0.536-26.492,6.73-50.304,18.55-66.166c0.179-0.241,0.349-0.451,0.53-0.642c-9.646,15.641-15.384,37.141-14.905,60.784
				c0.946,47.058,26.144,84.715,56.288,84.106c12.845-0.26,24.511-7.421,33.6-19.202
				C115.345,291.989,102.016,301.586,87.109,301.889z"/>
			<path style="fill:#D8DBD5;" d="M131.042,264.737c0.079-35.07-18.889-70.113-33.46-91.854
				c6.024-15.085,11.554-32.896,16.908-27.471c14.817,15.013,24.89,40.753,25.482,70.168
				C140.337,233.803,137.008,250.756,131.042,264.737z"/>
			<g>
				<path style="fill:#ED6A5A;" d="M63.742,263.066c-5.568,0.112-10.203-5.878-10.354-13.378c-0.151-7.5,4.241-13.671,9.809-13.783
					c5.568-0.112,10.203,5.878,10.354,13.378C73.701,256.784,69.31,262.955,63.742,263.066z"/>
				<path style="fill:#E65847;" d="M63.74,263.066c-5.564,0.111-10.199-5.876-10.353-13.379c-0.092-4.626,1.547-8.746,4.119-11.246
					c-0.99,2.149-1.538,4.713-1.488,7.449c0.159,7.495,4.789,13.49,10.359,13.371c2.134-0.042,4.092-0.972,5.693-2.527
					C70.336,260.483,67.27,262.994,63.74,263.066z"/>
				<path style="fill:#F77C6D;" d="M61.517,246.458c-3.308-5.031,4.137-10.353,7.922-5.671c1.178,1.458,1.945,3.51,1.606,6.391
					C70.42,252.507,64.215,250.561,61.517,246.458z"/>
			</g>
			<g>
				
					<ellipse transform="matrix(0.9998 -0.0201 0.0201 0.9998 -5.3903 2.0354)" style="fill:#1F487E;" cx="98.752" cy="269.677" rx="10.083" ry="13.583"/>
				<path style="fill:#1A3C69;" d="M99.022,283.257c-5.564,0.111-10.2-5.875-10.353-13.379c-0.091-4.626,1.547-8.746,4.119-11.246
					c-0.99,2.149-1.538,4.713-1.488,7.449c0.159,7.495,4.789,13.49,10.359,13.371c2.134-0.042,4.092-0.972,5.693-2.527
					C105.618,280.674,102.552,283.185,99.022,283.257z"/>
				<path style="fill:#245594;" d="M96.799,266.649c-3.308-5.031,4.137-10.354,7.922-5.671c1.178,1.458,1.945,3.51,1.606,6.391
					C105.702,272.698,99.497,270.752,96.799,266.649z"/>
			</g>
			<g>
				<path style="fill:#99B2DD;" d="M120.541,251.525c-5.568,0.112-10.203-5.878-10.354-13.378c-0.151-7.5,4.241-13.671,9.809-13.783
					c5.568-0.112,10.203,5.878,10.354,13.378C130.501,245.243,126.109,251.414,120.541,251.525z"/>
				<path style="fill:#7095D4;" d="M120.54,251.525c-5.564,0.111-10.2-5.876-10.353-13.379c-0.091-4.626,1.547-8.746,4.119-11.246
					c-0.99,2.149-1.538,4.713-1.488,7.449c0.159,7.495,4.789,13.49,10.359,13.371c2.134-0.042,4.092-0.972,5.693-2.527
					C127.135,248.942,124.069,251.453,120.54,251.525z"/>
				<path style="fill:#ACC3EB;" d="M118.316,234.917c-3.308-5.031,4.137-10.353,7.922-5.671c1.178,1.458,1.945,3.51,1.606,6.391
					C127.219,240.966,121.014,239.02,118.316,234.917z"/>
			</g>
			<g>
				<path style="fill:#48284A;" d="M115.316,208.668c-5.568,0.112-10.203-5.878-10.354-13.378c-0.15-7.5,4.241-13.671,9.809-13.783
					c5.568-0.112,10.203,5.878,10.354,13.378C125.276,202.386,120.884,208.557,115.316,208.668z"/>
				<path style="fill:#341936;" d="M115.315,208.668c-5.564,0.111-10.2-5.876-10.353-13.379c-0.092-4.626,1.547-8.746,4.119-11.247
					c-0.99,2.149-1.538,4.713-1.488,7.449c0.159,7.495,4.789,13.49,10.359,13.371c2.134-0.042,4.092-0.972,5.693-2.527
					C121.911,206.085,118.845,208.596,115.315,208.668z"/>
				<path style="fill:#643766;" d="M113.091,192.06c-3.308-5.031,4.137-10.354,7.922-5.671c1.178,1.457,1.945,3.51,1.606,6.391
					C121.994,198.109,115.789,196.163,113.091,192.06z"/>
			</g>
		</g>
		<g>
			<path style="fill:#1F487E;" d="M101.733,103.395c-1.33,8.54-2.99,17-4.72,25.42c-0.87,4.21-1.77,8.43-2.71,12.62
				c-0.92,4.19-1.89,8.38-2.88,12.55c-1,4.19-1.92,8.39-3.15,12.5c-0.28,0.97-0.57,1.94-0.88,2.9c-0.79,2.47-1.67,4.91-2.55,7.35
				c-0.23,0.66-0.48,1.31-0.71,1.96c-1.31,3.58-2.61,7.17-3.97,10.73c-1.71,4.49-3.53,8.95-5.59,13.34c-0.4,0.84-1.41,1.2-2.25,0.81
				c-0.67-0.31-1.04-1.02-0.96-1.71c0.18-1.69,0.39-3.36,0.63-5.03c0.97-6.91,2.34-13.7,3.69-20.5c0.14-0.68,0.27-1.37,0.4-2.05
				c0.71-3.54,1.46-7.07,2.39-10.54c1.09-4.15,2.48-8.22,3.8-12.32c1.32-4.08,2.66-8.16,4.07-12.22c1.35-4.08,2.77-8.15,4.22-12.2
				c2.9-8.09,5.87-16.18,9.16-24.17c0.23-0.54,0.84-0.79,1.38-0.57c0.02,0.01,0.04,0.02,0.05,0.02
				C101.573,102.495,101.803,102.945,101.733,103.395z"/>
			<path style="fill:#1A3C69;" d="M87.393,169.385c-0.79,2.47-1.67,4.91-2.55,7.35c-0.23,0.66-0.48,1.31-0.71,1.96
				c-1.31,3.58-2.61,7.17-3.97,10.73c-2.43,2.94-5.19,5.63-8.17,7.41c0.97-6.91,2.34-13.7,3.69-20.5c0.14-0.68,0.27-1.37,0.4-2.05
				c0.71-3.54,1.46-7.07,2.39-10.54c1.09-4.15,2.48-8.22,3.8-12.32c1.32-4.08,2.66-8.16,4.07-12.22c1.35-4.08,2.77-8.15,4.22-12.2
				c2.9-8.09,5.87-16.18,9.16-24.17c0.23-0.54,0.84-0.79,1.38-0.57c0.02,0.01,0.04,0.02,0.05,0.02
				C96.903,114.235,83.103,154.995,87.393,169.385z"/>
			<path style="fill:#48284A;" d="M73.933,217.005c-0.61,1.4-1.06,2.7-1.39,3.88c-1.29,4.62-0.72,7.58-0.35,8.8
				c0.04,0.13-0.14,0.21-0.23,0.1c-1.27-1.5-4.82-6.04-6.27-11.52c-1.37-5.14-0.89-11.1,5.06-16.12c1.28-1.08,3.4-0.45,3.87,1.15
				C75.533,206.435,76.283,211.595,73.933,217.005z"/>
			<path style="fill:#E8EBE4;" d="M84.923,175.762c0.213,0.06,0.332,0.289,0.257,0.497c-0.206,0.574-0.422,1.143-0.623,1.711
				c-2.43,6.657-4.827,13.326-7.621,19.887c-0.824,1.969-1.702,3.928-2.612,5.876c-0.428,0.899-1.509,1.284-2.408,0.867
				c-0.717-0.332-1.113-1.092-1.027-1.83c0.535-5.02,1.327-9.965,2.216-14.878c0.749-4.163,1.584-8.306,2.408-12.448
				c0.122-0.593,0.237-1.193,0.351-1.789c0.042-0.219,0.261-0.354,0.476-0.294L84.923,175.762z"/>
			<path style="fill:#C4C7C1;" d="M73.105,187.892c0.685,3.885,1.862,7.503,3.832,9.965c-0.824,1.969-1.702,3.928-2.612,5.876
				c-0.428,0.899-1.509,1.284-2.408,0.867c-0.717-0.332-1.113-1.092-1.027-1.83C71.425,197.749,72.217,192.805,73.105,187.892z"/>
			<path style="fill:#ED6A5A;" d="M72.193,229.685c0.04,0.13-0.14,0.21-0.23,0.1c-1.27-1.5-4.82-6.04-6.27-11.52
				c2.03,1.08,4.4,2.1,6.85,2.62C71.253,225.505,71.823,228.465,72.193,229.685z"/>
		</g>
	</g>
	<g>
		
			<rect x="267.911" y="320.956" transform="matrix(0.9989 0.0469 -0.0469 0.9989 15.4142 -12.2673)" style="fill:#404040;" width="1.9" height="2.115"/>
		<path style="fill:#4F4F4F;" d="M268.843,320.568l-0.135,2.877l-7.766,2.078l-66.986-3.149c-1.558-0.073-2.767-1.401-2.693-2.97
			l0.098-2.078c0.066-1.408,1.15-2.529,2.508-2.675c0.151-0.023,0.302-0.026,0.451-0.019l66.986,3.149L268.843,320.568z"/>
		<g>
			<path style="fill:#787878;" d="M247.644,321.949l-12.438-0.585c-0.336-0.016-0.596-0.301-0.58-0.637l0.03-0.645
				c0.016-0.336,0.301-0.596,0.637-0.58l12.438,0.585c0.336,0.016,0.596,0.301,0.58,0.637l-0.03,0.645
				C248.266,321.705,247.98,321.965,247.644,321.949z"/>
			
				<rect x="241.2" y="319.794" transform="matrix(0.9989 0.0469 -0.0469 0.9989 15.2968 -10.9645)" style="fill:#4F4F4F;" width="0.538" height="1.864"/>
		</g>
		<path style="fill:#404040;" d="M193.868,314.651c7.324,2.206,25.289,7.216,45.038,9.836l-44.95-2.113
			c-1.558-0.073-2.767-1.401-2.693-2.97l0.098-2.078C191.426,315.917,192.51,314.797,193.868,314.651z"/>
		<path style="fill:#4F4F4F;" d="M269.632,325.931c0,0-0.05,0.008-0.161,0.012C269.522,325.936,269.582,325.939,269.632,325.931z"/>
		<path style="fill:#5C5C5C;" d="M218.296,317.455c-0.873,0.065-0.996,1.296-0.154,1.535c4.159,1.182,10.753,2.49,13.982,0.126
			C235.74,316.468,224.517,316.99,218.296,317.455z"/>
	</g>
	<g>
		<g>
			<path style="fill:#2B2B2B;" d="M328.47,343.151c-2.118-3.708-2.39-8.354-0.746-12.744c1.643-4.393,4.899-7.718,8.932-9.125
				c4.37-1.523,8.884-0.934,13.25-0.365c0.53,0.069,1.06,0.139,1.586,0.203c4.509,0.555,9.095,0.769,13.623,0.647
				c4.392-0.121,10.032-0.589,14.712-3.149c3.34-1.827,5.806-4.664,6.868-7.726c-1.528-0.216-2.923-0.528-4.093-0.82
				c-2.763-0.69-5.9-1.711-8.213-4.05c-1.006-1.016-1.639-2.106-1.878-3.243c-0.309-1.462,0.04-2.98,0.983-4.274
				c1.214-1.666,3.302-2.838,5.449-3.06c2.849-0.298,5.722,0.708,8.07,2.822c2.556,2.301,4.125,5.596,4.251,8.884
				c0.855-0.045,1.665-0.156,2.448-0.331c3.272-0.733,5.977-2.871,6.891-5.446c1.165-3.281-0.427-7.049-2.305-9.482
				c-5.127-6.639-14.087-9.081-23.596-11.19l-21.732-4.818l0.865-3.904l21.732,4.818c10.255,2.273,19.952,4.952,25.897,12.65
				c3.268,4.232,4.354,9.191,2.908,13.265c-1.384,3.898-5.133,6.969-9.785,8.011c-1.272,0.285-2.552,0.416-3.801,0.439
				c-1.188,4.392-4.475,8.469-9.041,10.967c-5.43,2.97-11.681,3.504-16.521,3.638c-4.735,0.133-9.515-0.095-14.223-0.674
				c-0.536-0.066-1.075-0.137-1.615-0.207c-4.084-0.533-7.94-1.037-11.415,0.176c-2.864,0.999-5.295,3.522-6.503,6.749
				c-1.226,3.275-1.054,6.686,0.473,9.358L328.47,343.151z M379.914,299.395c-0.188,0-0.374,0.01-0.561,0.028
				c-1.006,0.104-2.086,0.695-2.627,1.438c-0.413,0.566-0.329,0.962-0.302,1.092c0.077,0.367,0.355,0.801,0.807,1.256
				c1.619,1.638,4.113,2.427,6.34,2.983c1.324,0.331,2.541,0.577,3.672,0.741c-0.188-2.083-1.266-4.216-2.906-5.692
				C383.002,300.037,381.451,299.395,379.914,299.395z"/>
		</g>
		<path style="fill:#3B3B3B;" d="M348.048,339.739v71.48c0,2.77-2.25,5.01-5.01,5.01h-138.12c-2.77,0-5.01-2.24-5.01-5.01v-71.48
			c0-2.77,2.24-5.01,5.01-5.01h138.12c1.27,0,2.42,0.47,3.31,1.27C347.388,336.899,348.048,338.239,348.048,339.739z"/>
		<path style="fill:#454545;" d="M210.222,337.711c-3.566,0.359-6.345,3.248-6.551,6.827c-0.79,13.737-2.345,46.053,0.373,48.067
			c3.458,2.563,23.5-51.128,22.667-54.168C226.169,336.459,216.746,337.053,210.222,337.711z"/>
		<circle style="fill:#242424;" cx="215.503" cy="375.604" r="9.625"/>
		<circle style="fill:#3B3B3B;" cx="215.503" cy="375.604" r="4.375"/>
		<path style="fill:#242424;" d="M222.315,361.729h-14.25c-0.311,0-0.562-0.252-0.562-0.563v-5.125c0-0.311,0.252-0.563,0.562-0.563
			h14.25c0.311,0,0.563,0.252,0.563,0.563v5.125C222.878,361.478,222.626,361.729,222.315,361.729z"/>
		<path style="fill:#242424;" d="M222.315,352.479h-14.25c-0.311,0-0.562-0.252-0.562-0.563v-5.125c0-0.311,0.252-0.563,0.562-0.563
			h14.25c0.311,0,0.563,0.252,0.563,0.563v5.125C222.878,352.228,222.626,352.479,222.315,352.479z"/>
		<path style="fill:#242424;" d="M222.315,404.979h-14.25c-0.311,0-0.562-0.252-0.562-0.563v-5.125c0-0.311,0.252-0.563,0.562-0.563
			h14.25c0.311,0,0.563,0.252,0.563,0.563v5.125C222.878,404.728,222.626,404.979,222.315,404.979z"/>
		<path style="fill:#242424;" d="M222.315,395.729h-14.25c-0.311,0-0.562-0.252-0.562-0.563v-5.125c0-0.311,0.252-0.563,0.562-0.563
			h14.25c0.311,0,0.563,0.252,0.563,0.563v5.125C222.878,395.478,222.626,395.729,222.315,395.729z"/>
		<g>
			<path style="fill:#242424;" d="M338.697,411.221H232.398c-1.773,0-3.21-1.437-3.21-3.21v-66.365c0-1.773,1.437-3.21,3.21-3.21
				h106.299c1.773,0,3.21,1.437,3.21,3.21v66.365C341.906,409.784,340.469,411.221,338.697,411.221z"/>
			<g>
				<g>
					<g>
						<polygon style="fill:#5E5E5E;" points="236.234,349.838 235.234,349.838 235.234,343.13 242.026,343.13 242.026,344.13 
							236.234,344.13 						"/>
					</g>
					<g>
						<polygon style="fill:#5E5E5E;" points="241.984,405.526 241.984,406.526 235.276,406.526 235.276,399.734 236.276,399.734 
							236.276,405.526 						"/>
					</g>
					<g>
						<polygon style="fill:#5E5E5E;" points="334.86,349.838 335.86,349.838 335.86,343.13 329.068,343.13 329.068,344.13 
							334.86,344.13 						"/>
					</g>
					<g>
						<polygon style="fill:#5E5E5E;" points="329.11,405.526 329.11,406.526 335.818,406.526 335.818,399.734 334.818,399.734 
							334.818,405.526 						"/>
					</g>
				</g>
			</g>
		</g>
		<path style="opacity:0.25;" d="M348.048,339.739v71.48c0,2.77-2.25,5.01-5.01,5.01h-91.56c30.46-7.39,82.72-27.57,94.87-80.23
			C347.388,336.899,348.048,338.239,348.048,339.739z"/>
		<path style="fill:#2B2B2B;" d="M257.482,388.796c-9.305,1.899-18.209-4.646-19.347-14.075c-1.228-10.178-1.96-23.299,1.905-26.09
			c6.5-4.694,62.25-1.651,67.75,1.849C312.201,353.287,282.81,383.629,257.482,388.796z"/>
	</g>
	<g>
		<path style="fill:#E8EBE4;" d="M430.285,282.666c-0.701,0.775-1.439,1.49-2.164,2.205c-0.273,0.352-0.549,0.657-0.774,0.986
			c-0.19,0.367-0.432,0.649-0.548,1.02c-0.571,1.368-0.656,2.702-0.315,3.856c0.331,1.139,0.929,2.056,1.673,2.545
			c0.186,0.123,0.354,0.243,0.553,0.321c0.162,0.113,0.372,0.168,0.565,0.23c0.162,0.095,0.422,0.078,0.606,0.138l1.246,0.393
			c0.932,0.299,1.872,0.575,2.796,0.892l1.388,0.469c0.133,0.051,0.191,0.058,0.385,0.145l0.524,0.232l1.042,0.486
			c2.751,1.407,5.159,3.812,6.551,6.677c1.411,2.86,1.856,6.103,1.37,9.21c-0.475,3.1-1.899,6.148-4.156,8.42
			c-1.108,1.141-2.39,2.092-3.736,2.819l-0.503,0.282c-0.19,0.108-0.242,0.12-0.37,0.185l-0.66,0.314l-1.332,0.604l-4.288,1.959
			c-0.661,0.366-1.164,0.91-1.549,1.696c-0.369,0.785-0.472,1.805-0.273,2.768c0.22,0.955,0.666,1.908,1.549,2.656
			c0.194,0.224,0.482,0.339,0.724,0.541c0.09,0.089,0.328,0.198,0.555,0.304l0.666,0.318l2.651,1.313
			c3.526,1.781,7.02,3.659,10.428,5.815c0.242,0.153,0.314,0.473,0.161,0.714c-0.103,0.162-0.281,0.247-0.459,0.24
			c-4.029-0.172-7.971-0.622-11.883-1.17l-2.926-0.434l-0.728-0.119c-0.239-0.038-0.467-0.068-0.825-0.174
			c-0.644-0.195-1.319-0.324-1.95-0.623c-2.564-1.072-4.891-3.144-6.23-5.756c-0.704-1.293-1.135-2.712-1.409-4.172
			c-0.092-0.733-0.151-1.481-0.16-2.229c0.053-0.747,0.047-1.51,0.209-2.257c0.487-3.009,2.144-5.952,4.527-8.017
			c0.571-0.564,1.226-0.955,1.87-1.395l0.492-0.313l0.357-0.211l0.634-0.365l2.535-1.461l1.268-0.73l0.64-0.353
			c0.086-0.051,0.259-0.134,0.274-0.159l0.121-0.098c0.351-0.227,0.627-0.482,0.847-0.761c0.422-0.558,0.735-1.189,0.825-1.938
			c0.087-0.74-0.022-1.522-0.284-2.187c-0.291-0.656-0.68-1.208-1.325-1.706c-0.087-0.055-0.173-0.115-0.258-0.181l-0.127-0.102
			c-0.02-0.029-0.194-0.102-0.283-0.151l-1.302-0.671c-0.87-0.443-1.723-0.927-2.586-1.388l-1.428-0.783
			c-0.664-0.415-1.337-0.768-1.93-1.301c-0.61-0.493-1.191-1.007-1.69-1.617c-0.54-0.564-0.957-1.225-1.35-1.887
			c-1.591-2.653-1.952-5.756-1.396-8.485c0.52-2.751,2.196-5.169,4.294-6.613c0.49-0.402,1.111-0.621,1.643-0.905
			c0.558-0.246,1.16-0.38,1.713-0.542c1.017-0.156,2.026-0.304,3.069-0.397c0.295-0.026,0.556,0.192,0.582,0.487
			C430.436,282.411,430.381,282.559,430.285,282.666z"/>
		<g>
			<g>
				<g>
					<path style="fill:#ED6A5A;" d="M443.544,385.371c-2.8,1.43-6.3,2.27-10.66,2.31v0.01h-0.85v-0.01
						c-25.68-0.23-21.68-28.16-18.48-41c0.75-3.02,1.46-5.21,1.72-6c0.06-0.19,0.25-0.32,0.45-0.32h33.46
						c0.21,0,0.39,0.13,0.46,0.32C450.854,344.271,461.104,376.421,443.544,385.371z"/>
					<path style="fill:#ED6A5A;" d="M446.327,350.639c0.896-1.139,1.775-2.006,2.854-2.835c1.058-0.815,2.232-1.538,3.572-2.045
						c0.644-0.298,1.378-0.434,2.087-0.617c0.36-0.077,0.742-0.097,1.115-0.142c0.376-0.033,0.749-0.093,1.133-0.055
						c0.764,0.044,1.537,0.075,2.273,0.297c0.371,0.093,0.748,0.181,1.113,0.29l1.035,0.446c0.718,0.277,1.311,0.692,1.908,1.104
						c0.293,0.209,0.615,0.401,0.88,0.63l0.769,0.706c1.027,0.844,2.056,2.17,2.724,3.496c0.702,1.348,1.088,2.796,1.273,4.213
						c0.185,1.421,0.187,2.833-0.013,4.188c-0.369,2.718-1.29,5.266-2.644,7.563c-0.674,1.15-1.467,2.234-2.377,3.23
						c-0.895,1.004-1.916,1.923-3.068,2.691c-2.252,1.563-5.141,2.549-8.014,2.353c-2.882-0.133-5.495-1.375-7.551-2.954
						l2.161-3.095c1.782,1.037,3.663,1.718,5.486,1.632c0.912-0.001,1.796-0.229,2.65-0.545c0.857-0.312,1.677-0.782,2.429-1.376
						c0.756-0.582,1.473-1.254,2.094-2.029c0.636-0.757,1.198-1.595,1.665-2.485c0.97-1.754,1.612-3.717,1.814-5.637
						c0.219-1.915-0.006-3.81-0.777-5.264c-0.407-0.745-0.82-1.308-1.582-1.977l-0.507-0.496c-0.172-0.158-0.364-0.257-0.542-0.392
						l-0.539-0.388c-0.177-0.139-0.378-0.182-0.559-0.29l-0.555-0.294l-0.577-0.172c-0.378-0.163-0.782-0.168-1.181-0.232
						c-0.198-0.056-0.408-0.023-0.615-0.025c-0.208,0.01-0.416-0.015-0.63,0.014c-0.428,0.083-0.861,0.107-1.303,0.255
						c-0.89,0.202-1.786,0.622-2.674,1.092c-0.864,0.468-1.796,1.104-2.51,1.66L446.327,350.639z"/>
				</g>
			</g>
			<path style="fill:#ED5947;" d="M455.744,350.141c-0.03-0.01-0.07,0-0.11,0c-0.43,0.09-0.86,0.11-1.31,0.26
				c-0.66,0.15-1.31,0.42-1.97,0.73c-0.33-1.72-0.7-3.3-1.05-4.7c0.46-0.26,0.94-0.48,1.45-0.67c0.56-0.26,1.2-0.4,1.82-0.55
				C454.954,346.631,455.364,348.301,455.744,350.141z"/>
			<path style="fill:#ED5947;" d="M456.774,370.701c-0.32,1.87-0.79,3.67-1.46,5.36c-0.78,0.11-1.58,0.15-2.37,0.09
				c-0.41-0.02-0.81-0.06-1.21-0.12c0.54-1.37,0.95-2.81,1.25-4.3h0.06c0.91,0,1.8-0.22,2.65-0.54
				C456.064,371.061,456.424,370.901,456.774,370.701z"/>
			<path style="fill:#ED5947;" d="M443.544,385.371c-2.8,1.43-6.3,2.27-10.66,2.31v0.01h-0.85v-0.01
				c-25.68-0.23-21.68-28.16-18.48-41C416.314,356.801,424.764,380.871,443.544,385.371z"/>
			<path style="fill:#ED8174;" d="M431.926,345.866c-0.006-1.37,1.08-2.489,2.449-2.52c3.43-0.077,10.523,0.007,13.391,1.864
				c2.659,1.722,1.979,12.426,1.305,18.883c-0.217,2.076-2.745,2.982-4.229,1.513C439.981,360.793,431.953,351.929,431.926,345.866z
				"/>
		</g>
	</g>
	<g>
		<g>
			<polygon style="fill:#1F1F1F;" points="309.003,301.896 215.753,301.896 225.253,266.563 299.503,266.563 			"/>
			<path style="fill:#3B3B3B;" d="M401.378,283.396h-278c-1.473,0-2.667-1.194-2.667-2.667V121.063c0-1.473,1.194-2.667,2.667-2.667
				h278c1.473,0,2.667,1.194,2.667,2.667v159.667C404.045,282.202,402.851,283.396,401.378,283.396z"/>
			<path style="fill:#1F1F1F;" d="M404.045,271.229H120.711V121.063c0-1.473,1.194-2.667,2.667-2.667h278
				c1.473,0,2.667,1.194,2.667,2.667V271.229z"/>
			<path style="fill:#3B3B3B;" d="M313.003,301.896h-101.25l0,0c0-3.222,2.612-5.833,5.833-5.833h89.583
				C310.391,296.063,313.003,298.674,313.003,301.896L313.003,301.896z"/>
			<g>
				<rect x="128.469" y="125.146" style="fill:#606060;" width="267.818" height="139.333"/>
				<g>
					<polygon style="fill:#828282;" points="377.878,125.146 140.878,125.146 128.469,125.146 128.469,137.979 128.469,264.479 
						140.878,264.479 140.878,137.979 377.878,137.979 377.878,148.979 339.878,148.979 339.878,183.979 377.878,183.979 
						377.878,264.479 396.287,264.479 396.287,137.979 396.287,125.146 					"/>
					<g>
						<g>
							<rect x="130.878" y="147.229" style="fill:#696969;" width="8.167" height="8.167"/>
							<rect x="130.878" y="160.229" style="fill:#696969;" width="8.167" height="8.167"/>
							<rect x="130.878" y="173.229" style="fill:#696969;" width="8.167" height="8.167"/>
							<rect x="130.878" y="186.229" style="fill:#696969;" width="8.167" height="8.167"/>
							<rect x="130.878" y="199.229" style="fill:#696969;" width="8.167" height="8.167"/>
						</g>
					</g>
					<rect x="199.128" y="129.229" style="fill:#696969;" width="70.5" height="5.25"/>
					<rect x="284.878" y="129.229" style="fill:#696969;" width="70.5" height="5.25"/>
					<g>
						<rect x="343.503" y="158.582" style="fill:#696969;" width="6.75" height="6.75"/>
						<rect x="357.128" y="158.582" style="fill:#696969;" width="6.75" height="6.75"/>
						<rect x="370.753" y="158.582" style="fill:#696969;" width="6.75" height="6.75"/>
						<rect x="343.503" y="170.457" style="fill:#696969;" width="6.75" height="6.75"/>
						<rect x="357.128" y="170.457" style="fill:#696969;" width="6.75" height="6.75"/>
						<rect x="370.753" y="170.457" style="fill:#696969;" width="6.75" height="6.75"/>
					</g>
				</g>
			</g>
		</g>
		<g>
			<g>
				<g>
					<rect x="210.23" y="149.37" style="fill:#FFFFFF;" width="103.833" height="103.833"/>
				</g>
			</g>
			<g>
				<path style="fill:#E8EBE4;" d="M281.398,187.993c0,4.42-1.49,8.48-3.99,11.73c-3.98,5.15-5.89,11.61-5.89,18.12v1.4h-18.75
					v-2.18c0-0.35-0.01-0.69-0.03-1.04c-0.22-6.01-2.45-11.73-6.05-16.57c-2.85-3.83-4.3-8.74-3.63-14
					c1.12-8.67,8.17-15.61,16.86-16.58c9.09-1.02,17.09,4.28,20.15,12.08C280.928,183.133,281.398,185.503,281.398,187.993z"/>
				<path style="fill:#D8DBD5;" d="M281.398,187.993c0,4.42-1.49,8.48-3.99,11.73c-3.98,5.15-5.89,11.61-5.89,18.12v1.4h-18.75
					v-2.18c0-0.35-0.01-0.69-0.03-1.04c18.1-5.09,24.87-23.91,27.33-35.07C280.928,183.133,281.398,185.503,281.398,187.993z"/>
				<g>
					<path style="fill:#102642;" d="M264.639,218.568l-0.871-0.066l1.573-20.731c0.087-1.005,0.134-2.068,0.181-3.109
						c0.027-0.63,0.055-1.245,0.09-1.832c-0.458,0.064-0.922,0.049-1.346-0.048c-0.602-0.139-1.167-0.409-1.656-0.78
						c-0.559,1.27-1.587,2.232-2.792,2.578c-0.281,0.081-0.568,0.123-0.855,0.13c0.278,0.953,0.457,2.018,0.619,3.298l1.348,20.497
						l-0.871,0.058l-1.346-20.472c-0.178-1.403-0.369-2.508-0.692-3.483c-0.977-0.237-1.831-0.873-2.218-1.759
						c-0.178-0.407-0.21-0.776-0.093-1.096c0.091-0.253,0.295-0.468,0.545-0.576c0.223-0.095,0.461-0.097,0.67-0.005
						c0.222,0.098,0.361,0.278,0.435,0.376c0.575,0.746,0.989,1.481,1.303,2.28c0.304,0.023,0.615-0.003,0.914-0.088
						c1.045-0.3,1.929-1.202,2.35-2.381c-0.22-0.255-0.409-0.535-0.563-0.835c-0.581-1.129-0.637-2.503-0.15-3.673
						c0.043-0.105,0.177-0.43,0.518-0.53c0.173-0.051,0.354-0.03,0.515,0.058c0.305,0.168,0.435,0.53,0.477,0.677
						c0.421,1.5,0.483,2.865,0.186,4.063c0.439,0.394,0.976,0.679,1.553,0.812c0.382,0.087,0.805,0.091,1.212,0.012
						c0.036-0.455,0.081-0.887,0.138-1.288c0.122-0.876,0.613-1.732,1.451-1.628c0.32,0.035,0.596,0.213,0.775,0.501
						c0.242,0.39,0.29,0.968,0.119,1.44c-0.285,0.785-0.916,1.326-1.655,1.625c-0.044,0.667-0.075,1.377-0.108,2.108
						c-0.047,1.052-0.095,2.128-0.182,3.14L264.639,218.568z M256.571,191.971c0.017,0.011-0.027,0.043-0.04,0.08
						c-0.036,0.1-0.01,0.26,0.073,0.45c0.186,0.425,0.536,0.773,0.967,1.006c-0.242-0.485-0.535-0.952-0.9-1.425
						C256.621,192.018,256.587,191.98,256.571,191.971z M267.151,189.892c-0.211,0-0.415,0.449-0.477,0.883
						c-0.036,0.256-0.066,0.527-0.094,0.811c0.34-0.219,0.613-0.524,0.756-0.917c0.079-0.219,0.061-0.518-0.04-0.681
						c-0.054-0.087-0.104-0.092-0.13-0.095C267.162,189.892,267.156,189.892,267.151,189.892z M261.907,187.376
						c-0.268,0.91-0.197,1.913,0.232,2.749c0.016,0.029,0.03,0.058,0.046,0.086C262.279,189.355,262.186,188.406,261.907,187.376z"
						/>
				</g>
				<path style="fill:#163359;" d="M264.538,233.826h-4.781c-4.318,0-7.818-3.5-7.818-7.818v-8c0-0.377,0.305-0.682,0.682-0.682
					h19.052c0.377,0,0.682,0.305,0.682,0.682v8C272.356,230.326,268.855,233.826,264.538,233.826z"/>
				<rect x="251.267" y="218.535" style="fill:#102642;" width="21.76" height="4.333"/>
				<rect x="251.267" y="224.285" style="fill:#102642;" width="21.76" height="4.333"/>
				<g>
					<path style="fill:#FFFFFF;" d="M258.778,171.96c-3.167,2.414-6.07,5.073-8.262,8.138c-1.137,1.511-1.988,3.168-2.783,4.86
						c-0.86,1.692-1.319,3.515-2.034,5.459l-0.018,0.048c-0.098,0.265-0.392,0.401-0.657,0.304c-0.173-0.064-0.291-0.212-0.325-0.38
						c-0.105-0.522-0.17-1.054-0.229-1.593c-0.054-0.538-0.104-1.084-0.033-1.619c0.037-0.54,0.078-1.085,0.142-1.63
						c0.105-0.533,0.242-1.062,0.383-1.592c0.595-2.106,1.659-4.082,3.019-5.769c1.348-1.701,2.935-3.181,4.681-4.395
						c1.766-1.192,3.633-2.179,5.708-2.745c0.269-0.073,0.547,0.085,0.62,0.354c0.056,0.204-0.022,0.413-0.181,0.535L258.778,171.96
						z"/>
					<path style="fill:#FFFFFF;" d="M260.866,170.847c0,0.334-0.271,0.604-0.604,0.604c-0.334,0-0.604-0.27-0.604-0.604
						c0-0.334,0.271-0.604,0.604-0.604C260.595,170.243,260.866,170.513,260.866,170.847z"/>
				</g>
			</g>
		</g>
		<g style="opacity:0.39;">
			<polygon style="opacity:0.13;fill:#FFFFFF;" points="260.598,271.229 231.598,271.229 128.469,118.396 157.469,118.396 			"/>
			<polygon style="opacity:0.13;fill:#FFFFFF;" points="295.692,271.229 266.692,271.229 163.564,118.396 192.564,118.396 			"/>
			<polygon style="opacity:0.13;fill:#FFFFFF;" points="401.484,271.229 386.984,271.229 283.856,118.396 298.356,118.396 			"/>
		</g>
	</g>
	<g>
		<g>
			<polygon style="fill:#E8EBE4;" points="152.29,343.517 152.29,430.569 69.118,430.569 69.118,325.647 137.798,325.647 			"/>
			<polygon style="fill:#D8DBD5;" points="137.801,325.647 152.289,343.52 133.373,343.52 			"/>
			<path style="fill:#E0E3DC;" d="M138.757,430.569H69.118v-62.986C77.802,389.715,97.247,421.535,138.757,430.569z"/>
		</g>
		<g>
			<g>
				<path style="fill:#1F487E;" d="M119.489,396.377c0.049-4.938,1.247-9.912,3.719-14.246c0.608-1.078,1.343-2.121,2.061-3.092
					c0.695-0.951,1.302-1.966,1.794-3.035c0.999-2.132,1.544-4.468,1.624-6.819c0.031-2.351-0.324-4.712-1.175-6.904
					c-0.838-2.192-2.124-4.211-3.752-5.901c-3.244-3.396-7.884-5.414-12.583-5.395c-4.703-0.068-9.338,1.92-12.606,5.27
					c-1.622,1.682-2.951,3.657-3.821,5.827c-0.845,2.175-1.287,4.515-1.238,6.861c0.042,2.343,0.571,4.669,1.52,6.811
					c0.474,1.071,1.057,2.096,1.735,3.053c0.704,0.986,1.418,2.032,2.036,3.103c2.503,4.294,3.895,9.258,3.837,14.226h-0.949
					c-0.056-4.793-1.552-9.487-3.986-13.581c-0.616-1.03-1.29-1.988-2.014-2.974c-0.744-1.019-1.387-2.113-1.915-3.262
					c-1.06-2.296-1.626-4.818-1.688-7.345c-0.065-2.526,0.397-5.067,1.306-7.432c0.931-2.359,2.361-4.51,4.133-6.316
					c3.547-3.609,8.592-5.737,13.659-5.639c5.069,0.003,10.066,2.206,13.533,5.872c1.741,1.825,3.113,4,4.002,6.359
					c0.903,2.358,1.274,4.894,1.225,7.409c-0.097,2.516-0.693,5.017-1.773,7.293c-0.533,1.141-1.183,2.226-1.942,3.229
					c-0.743,0.977-1.425,1.919-2.031,2.956c-2.421,4.111-3.65,8.893-3.763,13.684L119.489,396.377z"/>
				<line style="fill:#1F487E;" x1="101.375" y1="403.285" x2="101.375" y2="401.643"/>
				<path style="fill:#1F487E;" d="M120.7,407.46c-0.342,0.941-0.853,1.83-1.522,2.59c-0.683,0.745-1.495,1.384-2.414,1.827
					c-0.915,0.445-1.922,0.719-2.94,0.777c-1.017,0.041-1.904,0.026-2.862,0.03l-1.412-0.007c-0.461,0-0.943,0-1.466-0.04
					c-1.016-0.098-2.015-0.386-2.917-0.858c-0.898-0.48-1.704-1.123-2.362-1.891c-0.643-0.781-1.138-1.676-1.454-2.628l0.895-0.317
					c0.645,1.644,1.912,3.001,3.465,3.765c0.782,0.369,1.623,0.607,2.482,0.681c0.416,0.028,0.876,0.026,1.357,0.021l1.412-0.007
					c0.924-0.012,1.921,0.024,2.786-0.006c0.864-0.034,1.707-0.271,2.496-0.618c1.576-0.712,2.873-2.041,3.571-3.66L120.7,407.46z"
					/>
				<line style="fill:#1F487E;" x1="120.75" y1="401.773" x2="120.75" y2="402.988"/>
				<path style="fill:#1F487E;" d="M101.375,397.531v-0.499c0-0.358,0.29-0.648,0.648-0.648h18.081c0.358,0,0.647,0.29,0.647,0.648
					v0.531"/>
				<path style="fill:#1F487E;" d="M121.724,401.979c-6.959,0.083-13.991,0.144-20.986,0.139l-0.472,0l-0.002-0.474l-0.019-4.112
					l-0.002-0.494l0.496,0.001l20.651,0.019l0.473,0l0.002,0.474C121.868,399.014,121.806,400.532,121.724,401.979z
					 M121.052,401.308c-0.083-1.295-0.144-2.518-0.139-3.777l0.474,0.474l-20.651,0.019l0.493-0.493l-0.019,4.112l-0.474-0.474
					C107.509,401.164,114.245,401.225,121.052,401.308z"/>
				<path style="fill:#1F487E;" d="M121.724,407.436c-6.947,0.094-13.978,0.177-20.986,0.189l-0.531,0.001l0.006-0.526l0.05-4.112
					l0.006-0.475h0.469h20.651h0.473l0.002,0.475C121.868,404.471,121.806,405.989,121.724,407.436z M121.052,406.765
					c-0.083-1.295-0.144-2.518-0.139-3.777l0.474,0.474h-20.651l0.474-0.474l0.05,4.112l-0.524-0.525
					C107.496,406.587,114.232,406.67,121.052,406.765z"/>
				<g>
					<path style="fill:#1F487E;" d="M113.427,397.562l-0.827-0.063l1.493-19.674c0.083-0.954,0.127-1.963,0.171-2.95
						c0.026-0.598,0.052-1.181,0.085-1.739c-0.435,0.061-0.875,0.047-1.277-0.046c-0.571-0.132-1.107-0.388-1.572-0.74
						c-0.53,1.205-1.506,2.119-2.65,2.447c-0.267,0.077-0.539,0.117-0.811,0.124c0.264,0.904,0.434,1.915,0.588,3.13l1.279,19.453
						l-0.826,0.055l-1.277-19.428c-0.169-1.331-0.35-2.38-0.657-3.305c-0.927-0.225-1.737-0.829-2.105-1.669
						c-0.169-0.386-0.199-0.737-0.089-1.04c0.087-0.241,0.28-0.444,0.517-0.546c0.212-0.09,0.438-0.092,0.636-0.005
						c0.21,0.093,0.342,0.264,0.413,0.356c0.545,0.708,0.939,1.405,1.237,2.164c0.288,0.022,0.583-0.003,0.867-0.084
						c0.992-0.285,1.83-1.141,2.23-2.26c-0.209-0.242-0.388-0.508-0.535-0.792c-0.551-1.071-0.604-2.375-0.142-3.486
						c0.041-0.1,0.168-0.408,0.491-0.503c0.164-0.049,0.337-0.028,0.488,0.055c0.289,0.16,0.412,0.503,0.452,0.643
						c0.399,1.424,0.458,2.719,0.176,3.856c0.417,0.374,0.926,0.645,1.474,0.771c0.362,0.083,0.764,0.087,1.15,0.011
						c0.034-0.431,0.077-0.841,0.131-1.223c0.116-0.831,0.582-1.644,1.377-1.545c0.304,0.033,0.565,0.202,0.736,0.476
						c0.23,0.37,0.275,0.919,0.113,1.366c-0.271,0.745-0.869,1.259-1.571,1.542c-0.042,0.633-0.071,1.307-0.103,2.001
						c-0.045,0.999-0.09,2.019-0.172,2.98L113.427,397.562z M105.771,372.321c0.016,0.01-0.025,0.041-0.038,0.076
						c-0.034,0.095-0.01,0.246,0.069,0.427c0.177,0.404,0.509,0.733,0.917,0.955c-0.229-0.461-0.508-0.904-0.854-1.353
						C105.818,372.366,105.786,372.331,105.771,372.321z M115.811,370.349c-0.2,0-0.394,0.426-0.452,0.838
						c-0.034,0.243-0.063,0.5-0.089,0.769c0.323-0.208,0.582-0.497,0.717-0.87c0.075-0.208,0.058-0.491-0.038-0.646
						c-0.051-0.082-0.099-0.088-0.123-0.09C115.821,370.349,115.816,370.349,115.811,370.349z M110.834,367.961
						c-0.254,0.864-0.187,1.815,0.221,2.608c0.015,0.027,0.029,0.055,0.044,0.082C111.187,369.839,111.099,368.938,110.834,367.961z
						"/>
				</g>
				<path style="fill:#1F487E;" d="M129.532,376.824c1.673,0.405,3.215,1.09,4.733,1.827c1.518,0.738,3.011,1.528,4.44,2.454
					c0.222,0.144,0.285,0.441,0.141,0.663c-0.119,0.184-0.343,0.258-0.543,0.197c-1.628-0.5-3.193-1.137-4.733-1.827
					c-1.54-0.69-3.055-1.432-4.44-2.454c-0.215-0.159-0.261-0.462-0.102-0.677C129.147,376.846,129.348,376.78,129.532,376.824z"/>
				<path style="fill:#1F487E;" d="M83.082,352.39c1.673,0.405,3.215,1.09,4.733,1.827c1.518,0.738,3.011,1.528,4.44,2.454
					c0.222,0.144,0.285,0.441,0.141,0.663c-0.119,0.184-0.343,0.258-0.543,0.197c-1.629-0.5-3.193-1.137-4.733-1.827
					c-1.54-0.69-3.055-1.432-4.44-2.454c-0.215-0.159-0.261-0.462-0.102-0.677C82.698,352.412,82.898,352.346,83.082,352.39z"/>
				<path style="fill:#1F487E;" d="M82.918,383.2c1.254-1.18,2.67-2.097,4.117-2.965c1.447-0.868,2.925-1.686,4.483-2.377
					c0.242-0.107,0.525,0.002,0.632,0.244c0.089,0.2,0.029,0.429-0.131,0.562c-1.309,1.09-2.698,2.052-4.117,2.965
					c-1.42,0.912-2.87,1.776-4.482,2.377c-0.251,0.093-0.529-0.034-0.623-0.285C82.726,383.534,82.781,383.33,82.918,383.2z"/>
				<path style="fill:#1F487E;" d="M127.915,355.088c1.253-1.18,2.67-2.097,4.117-2.965c1.447-0.868,2.925-1.686,4.482-2.377
					c0.242-0.107,0.525,0.002,0.632,0.244c0.089,0.2,0.029,0.429-0.131,0.562c-1.309,1.09-2.698,2.052-4.117,2.965
					c-1.419,0.912-2.87,1.776-4.482,2.377c-0.251,0.093-0.529-0.034-0.623-0.285C127.723,355.422,127.777,355.218,127.915,355.088z"
					/>
				<path style="fill:#1F487E;" d="M110.521,346.565c-0.318-1.691-0.328-3.379-0.28-5.066c0.049-1.687,0.156-3.373,0.413-5.057
					c0.04-0.262,0.285-0.441,0.546-0.401c0.216,0.033,0.377,0.207,0.403,0.414c0.213,1.69,0.275,3.378,0.28,5.066
					c0.004,1.687-0.05,3.374-0.413,5.057c-0.056,0.261-0.314,0.428-0.575,0.371C110.699,346.907,110.557,346.751,110.521,346.565z"
					/>
			</g>
		</g>
	</g>
	<g>
		<g>
			<path style="fill:#99B2DD;" d="M231.728,169.367l-3.83-0.67l-5.53-0.97l-2.93-0.51c-0.33-0.06-0.64-0.18-0.92-0.35
				c-0.07-0.04-0.15-0.09-0.21-0.14l-66.8-49.41c-1.53-1.14-1.86-3.31-0.72-4.85l2.21-2.99l1.26-1.7c1.14-1.53,3.31-1.86,4.84-0.72
				l59.83,44.25l6.97,5.16c0.07,0.05,0.13,0.11,0.19,0.16c0.25,0.22,0.45,0.49,0.6,0.78l1.27,2.49l2.18,4.28l2.21,4.35
				C232.558,168.958,232.198,169.447,231.728,169.367z"/>
			<path style="fill:#86A5D9;" d="M227.958,159.898c-1.61,2.51-3.48,5.21-5.59,7.83l-2.93-0.51c-0.33-0.06-0.64-0.18-0.92-0.35
				c-0.07-0.04-0.15-0.09-0.21-0.14l-66.8-49.41c-1.53-1.14-1.86-3.31-0.72-4.85l2.21-2.99c9.38,9.81,39.93,39.68,65.93,41.83
				l6.97,5.16c0.07,0.05,0.13,0.11,0.19,0.16c0.25,0.22,0.45,0.49,0.6,0.78L227.958,159.898z"/>
			
				<rect x="155.38" y="116.096" transform="matrix(0.5947 -0.8039 0.8039 0.5947 -28.471 177.4444)" style="fill:#5084DD;" width="12.763" height="1.731"/>
			<path style="fill:#E4E8F0;" d="M226.092,156.63c0.242,0.219,0.448,0.485,0.6,0.783l3.444,6.77l2.209,4.347
				c0.217,0.427-0.146,0.917-0.617,0.835l-3.831-0.671l-8.457-1.477c-0.329-0.057-0.644-0.177-0.924-0.344L226.092,156.63z"/>
			<path style="fill:#99B2DD;" d="M230.136,164.182l2.209,4.347c0.217,0.427-0.146,0.917-0.617,0.835l-3.831-0.671L230.136,164.182z
				"/>
			<path style="fill:#A2BDEB;" d="M171.766,120.162c-1.321-0.645-2.502,1.083-1.411,2.068c6.25,5.642,17.652,15.244,20.515,12.977
				C193.756,132.923,179.897,124.131,171.766,120.162z"/>
		</g>
	</g>
	<g>
		<g>
			<path style="fill:#ED6A5A;" d="M373.647,149.351c-0.36,1.01-1.59,1.4-2.48,0.81l-4.38-2.92c0,0-4.14,12.15-12.52,16.86
				c-1.35,0.76-3.02,0.64-4.3-0.21l-3.18-2.12l-7.24,5.57c-0.54,0.41-1.29-0.09-1.11-0.74l2.34-8.83l-3.17-2.12
				c-1.29-0.85-2.04-2.35-1.86-3.89c1.12-9.55,10.73-18.04,10.73-18.04l-4.38-2.92c-0.89-0.6-1.01-1.88-0.21-2.6
				c3.33-2.99,6.78-4.61,10.03-5.39c1.47-0.35,2.93-0.52,4.38-0.51c7.01,0.03,13.49,4.06,16.67,10.24c0.86,1.68,1.47,3.52,1.79,5.48
				C375.287,141.321,375.127,145.121,373.647,149.351z"/>
			<path style="fill:#F57969;" d="M372.967,132.541c-8.1,14.41-22.25,33.95-29.57,25.63c-7.1-8.06,4.32-25.26,12.9-35.87
				C363.307,122.331,369.787,126.361,372.967,132.541z"/>
		</g>
		<g>
			<path style="fill:#4468A6;" d="M367.437,92.211c-0.55,3.65-11.54,20.18-11.54,20.18c-1.39-2.52-3.89-3.9-6.17-4.65
				c-1.56-0.52-3.03-0.74-3.96-0.84c-0.48-0.05-0.75-0.58-0.51-1c4.81-8.21,10.94-11.53,15.54-12.86
				C364.657,91.921,367.437,92.211,367.437,92.211z"/>
			<path style="fill:#3B5A8F;" d="M367.437,92.211c-0.55,3.65-11.54,20.18-11.54,20.18c-1.39-2.52-3.89-3.9-6.17-4.65
				c6.88-4.46,9.82-10.35,11.07-14.7C364.657,91.921,367.437,92.211,367.437,92.211z"/>
		</g>
		<g>
			<path style="fill:#4468A6;" d="M392.597,137.431c-0.29,0.39-0.89,0.34-1.12-0.08c-0.59-1.09-1.74-2.94-3.43-4.51
				c-1.45-1.34-3.31-2.48-5.54-2.72c0,0,11.02-16.51,14.17-18.43c0,0,1.56,2.85,1.89,7.41
				C398.907,123.811,397.947,130.341,392.597,137.431z"/>
			<path style="fill:#3B5A8F;" d="M398.567,119.101c-4.29,3.51-8.71,8.23-10.52,13.74c-1.45-1.34-3.31-2.48-5.54-2.72
				c0,0,11.02-16.51,14.17-18.43C396.677,111.691,398.237,114.541,398.567,119.101z"/>
		</g>
		<path style="fill:#4468A6;" d="M359.763,114.716c0,0-4.139,4.088-3.811,5.722c0.328,1.634,17.329,12.959,19.29,12.849
			c1.961-0.11,3.811-5.722,3.811-5.722L359.763,114.716z"/>
		<path style="fill:#99B2DD;" d="M405.757,87.061c-0.39,9.07-4.75,22.39-20.07,40.07c-0.91,1.05-1.87,2.12-2.86,3.21
			c-1.12,1.23-2.98,1.45-4.36,0.54l-21.38-14.25c-1.39-0.92-1.89-2.72-1.19-4.24c6.84-14.75,13.83-24.21,20.24-30.22
			c3.9-3.67,7.57-6.06,10.87-7.6c6.46-3.03,11.43-2.79,13.67-2.43c0.85,0.13,1.6,0.63,2.04,1.36
			C403.917,75.421,406.057,79.931,405.757,87.061z"/>
		<path style="fill:#89A7DD;" d="M385.687,127.131c-0.91,1.05-1.87,2.12-2.86,3.21c-1.12,1.23-2.98,1.45-4.36,0.54l-21.38-14.25
			c-1.39-0.92-1.89-2.72-1.19-4.24c6.84-14.75,13.83-24.21,20.24-30.22C373.757,93.841,370.957,117.881,385.687,127.131z"/>
		<path style="fill:#4468A6;" d="M369.014,122.999l5.041-0.606c0.465-0.056,0.861-0.366,1.027-0.804l7.29-19.264
			c0.104-0.274-0.234-0.499-0.447-0.298l-14.97,14.149c-0.34,0.322-0.474,0.806-0.346,1.257l1.385,4.887
			C368.12,122.766,368.553,123.054,369.014,122.999z"/>
		<path style="fill:#A2BDEB;" d="M390.685,90.096c0.465-3.2,3.839-5.124,6.805-3.837c3.061,1.328,6.174,3.315,6.236,5.922
			c0.124,5.153-12.167,27.447-15,27.614C386.618,119.918,389.218,100.192,390.685,90.096z"/>
		<path style="fill:#E8EBE4;" d="M396.572,93.095c-2.135,3.205-6.464,4.073-9.669,1.938c-3.205-2.135-4.073-6.464-1.938-9.669
			c2.135-3.205,6.464-4.073,9.669-1.938C397.839,85.561,398.707,89.89,396.572,93.095z"/>
		<g>
			<path style="fill:#4468A6;" d="M405.757,87.061l-18.76-12.5c0.47-0.22,0.93-0.42,1.38-0.61c5.8-2.38,10.22-2.14,12.3-1.81
				c0.85,0.13,1.6,0.63,2.04,1.36c0.52,0.84,1.22,2.16,1.81,3.98C405.317,79.841,405.927,83.031,405.757,87.061z"/>
			<path style="fill:#3B5A8F;" d="M405.757,87.061l-18.76-12.5c0.47-0.22,0.93-0.42,1.38-0.61c4.49,2.05,10.75,4.21,16.15,3.53
				C405.317,79.841,405.927,83.031,405.757,87.061z"/>
		</g>
	</g>
	<g>
		<g>
			<g>
				<path style="fill:#E8EBE4;" d="M432.03,182.657c-0.04,0.06-0.08,0.11-0.13,0.16l-28.52,28.52c-0.21,0.22-0.49,0.32-0.77,0.32
					c-0.27,0-0.55-0.1-0.76-0.32c-0.47-0.47-1.24-0.47-1.71,0l-0.37,0.37c-0.84,0.85-2.25,0.8-3.03-0.15
					c-0.67-0.83-0.53-2.06,0.23-2.82l0.28-0.28c0.24-0.24,0.35-0.54,0.35-0.86c0-0.3-0.11-0.62-0.35-0.85
					c-0.42-0.42-0.42-1.11,0-1.53l14.98-14.98l11.98-11.98l1.56-1.56c0.43-0.43,1.11-0.43,1.53,0l4.6,4.59
					C432.27,181.667,432.31,182.237,432.03,182.657z"/>
				<path style="fill:#D8DBD5;" d="M432.03,182.657c-0.04,0.06-0.08,0.11-0.13,0.16l-18.64,18.64c0.56-4.01-0.11-8.01-1.03-11.22
					l11.98-11.98L432.03,182.657z"/>
			</g>
			<g>
				<path style="fill:#1F487E;" d="M427.86,189.627l1.13,1.13c0.25,0.25,0.25,0.65,0,0.9l-0.68,0.68l-1.62,1.63
					c-0.25,0.25-0.66,0.25-0.91,0l-11.15-11.15c-0.25-0.25-0.25-0.66,0-0.91l2.31-2.31c0.24-0.24,0.65-0.24,0.9,0l1.13,1.14
					c0.79,0.79,2.15,0.5,2.53-0.55c0.19-0.55,0.42-1.11,0.67-1.65c1.02-2.33,2.41-4.48,3.54-5.61c2.75-2.75,7.21-2.75,9.96-0.01
					c2.75,2.75,2.75,7.21,0,9.96c-1.4,1.41-4.35,3.19-7.26,4.22C427.35,187.467,427.07,188.827,427.86,189.627z"/>
				<path style="fill:#1C4070;" d="M428.31,192.337l-1.62,1.63c-0.25,0.25-0.66,0.25-0.91,0l-11.15-11.15
					c-0.25-0.25-0.25-0.66,0-0.91l2.31-2.31c0.24-0.24,0.65-0.24,0.9,0l1.13,1.14c0.79,0.79,2.15,0.5,2.53-0.55
					c0.19-0.55,0.42-1.11,0.67-1.65C421.55,182.937,422.4,188.357,428.31,192.337z"/>
				<path style="fill:#255696;" d="M431.525,174.804c0.628,0.943,1.223,2.232,1.328,3.812c0.068,1.03,1.47,1.323,1.974,0.423
					c1.317-2.35,1.832-5.089-2.204-5.847C431.705,173.02,431.007,174.026,431.525,174.804z"/>
			</g>
		</g>
	</g>
	<path style="fill:#ED6A5A;" d="M220.542,236.545l-17.803,7.032c-0.263,0.104-0.254,0.479,0.013,0.571l7.73,2.664
		c0.089,0.031,0.158,0.1,0.189,0.189l2.664,7.73c0.092,0.267,0.467,0.276,0.571,0.013l7.032-17.803
		C221.035,236.693,220.79,236.447,220.542,236.545z"/>
	<g>
		<g>
			<g>
				<path style="fill:#ACC3EB;" d="M337.102,138.411c-1.651,2.594-3.371,5.139-5.115,7.666c-1.713,2.55-3.544,5.014-5.31,7.524
					c-1.775,2.505-3.616,4.961-5.472,7.406c-1.884,2.425-3.764,4.854-5.76,7.197c-0.18,0.211-0.496,0.236-0.707,0.057
					c-0.191-0.163-0.23-0.438-0.102-0.645c1.614-2.622,3.344-5.159,5.069-7.699c1.753-2.52,3.522-5.029,5.357-7.49
					c1.843-2.455,3.621-4.957,5.518-7.373c1.865-2.439,3.755-4.86,5.713-7.231c0.176-0.213,0.492-0.243,0.705-0.067
					C337.195,137.919,337.236,138.201,337.102,138.411z"/>
			</g>
			<g>
				<path style="fill:#ACC3EB;" d="M372.022,157.337c-2.768,4.273-5.618,8.49-8.472,12.704l-8.67,12.566
					c-2.938,4.155-5.833,8.34-8.806,12.471c-2.958,4.141-5.932,8.271-8.966,12.359c-0.165,0.222-0.478,0.268-0.7,0.104
					c-0.213-0.158-0.264-0.455-0.121-0.675c2.784-4.262,5.63-8.482,8.491-12.691c2.846-4.219,5.77-8.384,8.651-12.579l8.787-12.484
					c2.966-4.136,5.935-8.269,8.986-12.346c0.166-0.221,0.479-0.266,0.7-0.101C372.113,156.822,372.163,157.118,372.022,157.337z"/>
			</g>
			<g>
				<path style="fill:#ACC3EB;" d="M351.115,173.878c-1.083,1.857-2.242,3.663-3.408,5.464c-1.174,1.795-2.386,3.564-3.588,5.339
					c-1.246,1.745-2.457,3.515-3.731,5.24c-1.269,1.729-2.55,3.451-3.897,5.126c-0.174,0.216-0.489,0.25-0.705,0.077
					c-0.197-0.158-0.242-0.434-0.118-0.645c1.09-1.853,2.247-3.66,3.415-5.459c1.163-1.803,2.389-3.561,3.581-5.344
					c1.235-1.753,2.46-3.512,3.724-5.245c1.271-1.728,2.55-3.45,3.904-5.121c0.174-0.215,0.49-0.248,0.705-0.074
					C351.193,173.394,351.238,173.668,351.115,173.878z"/>
			</g>
		</g>
		<g>
			<path style="fill:#FFFFFF;" d="M208.228,93.238c-4.013,0-7.278-3.265-7.278-7.278c0-4.013,3.265-7.278,7.278-7.278
				s7.278,3.265,7.278,7.278C215.505,89.972,212.241,93.238,208.228,93.238z M208.228,79.914c-3.334,0-6.046,2.712-6.046,6.045
				c0,3.334,2.712,6.046,6.046,6.046c3.333,0,6.045-2.712,6.045-6.046C214.273,82.626,211.561,79.914,208.228,79.914z"/>
		</g>
		<g>
			<path style="fill:#FFFFFF;" d="M221.003,77.396c0,1.997-1.619,3.617-3.616,3.617s-3.616-1.619-3.616-3.617
				s1.619-3.616,3.616-3.616S221.003,75.398,221.003,77.396z"/>
		</g>
		<g>
			<path style="fill:#FFFFFF;" d="M108.492,132.276c0,1.412-1.145,2.557-2.557,2.557s-2.557-1.145-2.557-2.557
				c0-1.412,1.145-2.557,2.557-2.557S108.492,130.863,108.492,132.276z"/>
		</g>
		<g style="opacity:0.43;">
			<g>
				<path style="fill:#ACC3EB;" d="M83.142,94.295c-4.818,0-8.739-3.92-8.739-8.739c0-4.819,3.92-8.739,8.739-8.739
					c4.818,0,8.739,3.921,8.739,8.739C91.881,90.375,87.961,94.295,83.142,94.295z M83.142,78.817c-3.716,0-6.739,3.023-6.739,6.739
					c0,3.716,3.023,6.739,6.739,6.739c3.716,0,6.739-3.023,6.739-6.739C89.881,81.841,86.858,78.817,83.142,78.817z"/>
			</g>
		</g>
		<g style="opacity:0.43;">
			<g>
				<path style="fill:#ACC3EB;" d="M446.653,144.913c-3.407,0-6.179-2.772-6.179-6.179c0-3.407,2.772-6.179,6.179-6.179
					s6.18,2.772,6.18,6.179C452.833,142.141,450.06,144.913,446.653,144.913z M446.653,133.969c-2.627,0-4.765,2.138-4.765,4.765
					c0,2.628,2.138,4.765,4.765,4.765c2.628,0,4.766-2.138,4.766-4.765C451.418,136.107,449.281,133.969,446.653,133.969z"/>
			</g>
		</g>
		<g style="opacity:0.43;">
			<g>
				<path style="fill:#ACC3EB;" d="M461.4,145.316c0,2.663-2.159,4.821-4.821,4.821c-2.663,0-4.821-2.159-4.821-4.821
					c0-2.663,2.159-4.821,4.821-4.821C459.242,140.495,461.4,142.653,461.4,145.316z"/>
			</g>
		</g>
		<g style="opacity:0.43;">
			<g>
				<path style="fill:#ACC3EB;" d="M321.105,69.245c-2.774,0-5.031-2.257-5.031-5.031c0-2.774,2.257-5.031,5.031-5.031
					c2.774,0,5.031,2.257,5.031,5.031C326.136,66.989,323.879,69.245,321.105,69.245z M321.105,60.598
					c-1.994,0-3.617,1.623-3.617,3.617c0,1.994,1.623,3.617,3.617,3.617c1.994,0,3.617-1.623,3.617-3.617
					C324.722,62.221,323.099,60.598,321.105,60.598z"/>
			</g>
		</g>
		<g style="opacity:0.43;">
			<g>
				<path style="fill:#ACC3EB;" d="M467.466,218.649c0,1.733-1.405,3.137-3.137,3.137c-1.733,0-3.137-1.405-3.137-3.137
					c0-1.733,1.405-3.137,3.137-3.137C466.062,215.512,467.466,216.917,467.466,218.649z"/>
			</g>
		</g>
		<g style="opacity:0.43;">
			<g>
				<path style="fill:#ACC3EB;" d="M197.341,336.274c0,1.733-1.405,3.138-3.137,3.138c-1.733,0-3.137-1.405-3.137-3.138
					c0-1.733,1.405-3.137,3.137-3.137C195.937,333.137,197.341,334.542,197.341,336.274z"/>
			</g>
		</g>
		<g style="opacity:0.43;">
			<g>
				<path style="fill:#ACC3EB;" d="M186.829,334.732c-1.499,0-2.718-1.22-2.718-2.719c0-1.499,1.219-2.718,2.718-2.718
					c1.499,0,2.719,1.219,2.719,2.718C189.547,333.512,188.328,334.732,186.829,334.732z M186.829,330.295
					c-0.947,0-1.718,0.771-1.718,1.718c0,0.947,0.771,1.719,1.718,1.719c0.948,0,1.719-0.771,1.719-1.719
					C188.547,331.066,187.776,330.295,186.829,330.295z"/>
			</g>
		</g>
		<g>
			<path style="fill:#E8EBE4;" d="M446.374,328.774c0,1.733-1.405,3.138-3.138,3.138c-1.733,0-3.137-1.405-3.137-3.138
				c0-1.733,1.405-3.137,3.137-3.137C444.969,325.637,446.374,327.042,446.374,328.774z"/>
		</g>
		<g>
			<path style="fill:#E8EBE4;" d="M420.987,311.623c-2.006,0-3.638-1.632-3.638-3.638s1.632-3.638,3.638-3.638
				c2.005,0,3.637,1.632,3.637,3.638S422.992,311.623,420.987,311.623z M420.987,305.348c-1.454,0-2.638,1.184-2.638,2.638
				s1.184,2.638,2.638,2.638c1.454,0,2.637-1.184,2.637-2.638S422.441,305.348,420.987,305.348z"/>
		</g>
		<g>
			<path style="fill:#E8EBE4;" d="M434.421,289.026c0,1.138-0.922,2.06-2.06,2.06c-1.138,0-2.06-0.922-2.06-2.06
				c0-1.138,0.923-2.06,2.06-2.06C433.498,286.966,434.421,287.889,434.421,289.026z"/>
		</g>
		<g style="opacity:0.43;">
			<g>
				<circle style="fill:#ACC3EB;" cx="329.319" cy="58.224" r="2.557"/>
			</g>
		</g>
		<g style="opacity:0.43;">
			<g>
				<circle style="fill:#ACC3EB;" cx="72.89" cy="97.951" r="2.557"/>
			</g>
		</g>
		<g style="opacity:0.43;">
			<g>
				<path style="fill:#ACC3EB;" d="M364.106,354.397c-4.02,0-7.29-3.271-7.29-7.29s3.27-7.29,7.29-7.29s7.29,3.27,7.29,7.29
					S368.125,354.397,364.106,354.397z M364.106,341.817c-2.917,0-5.29,2.373-5.29,5.29c0,2.917,2.373,5.29,5.29,5.29
					c2.917,0,5.29-2.373,5.29-5.29C369.396,344.19,367.023,341.817,364.106,341.817z"/>
			</g>
		</g>
		<g style="opacity:0.43;">
			<g>
				<circle style="fill:#ACC3EB;" cx="412.184" cy="394.402" r="2.834"/>
			</g>
		</g>
		<g style="opacity:0.43;">
			<g>
				<path style="fill:#ACC3EB;" d="M51.106,328.536c-4.019,0-7.29-3.271-7.29-7.29c0-4.02,3.271-7.29,7.29-7.29
					s7.29,3.271,7.29,7.29C58.396,325.266,55.126,328.536,51.106,328.536z M51.106,315.956c-2.917,0-5.29,2.373-5.29,5.29
					c0,2.917,2.373,5.29,5.29,5.29s5.29-2.373,5.29-5.29C56.396,318.329,54.023,315.956,51.106,315.956z"/>
			</g>
		</g>
		<g style="opacity:0.43;">
			<g>
				<path style="fill:#ACC3EB;" d="M63.735,310.651c0,2.074-1.681,3.755-3.755,3.755c-2.074,0-3.755-1.681-3.755-3.755
					c0-2.074,1.681-3.755,3.755-3.755C62.054,306.896,63.735,308.577,63.735,310.651z"/>
			</g>
		</g>
		<g>
			<circle style="fill:#FFFFFF;" cx="420.72" cy="149.396" r="2.94"/>
		</g>
		<g>
			<path style="fill:#ACC3EB;" d="M360.343,189.977c-1.868,0-3.389-1.521-3.389-3.389c0-1.869,1.521-3.389,3.389-3.389
				c1.869,0,3.39,1.52,3.39,3.389C363.733,188.456,362.212,189.977,360.343,189.977z M360.343,183.906
				c-1.479,0-2.682,1.203-2.682,2.682c0,1.479,1.203,2.682,2.682,2.682c1.479,0,2.683-1.203,2.683-2.682
				C363.026,185.109,361.823,183.906,360.343,183.906z"/>
		</g>
		<g>
			<path style="fill:#ACC3EB;" d="M355.456,190.748c-0.621,0.091-1.198-0.339-1.289-0.96c-0.091-0.621,0.339-1.198,0.96-1.289
				c0.621-0.091,1.198,0.339,1.289,0.96C356.507,190.08,356.077,190.657,355.456,190.748z"/>
		</g>
		<g>
			<path style="fill:#ACC3EB;" d="M328.283,159.343c0,0.94-0.762,1.702-1.701,1.702c-0.94,0-1.701-0.762-1.701-1.702
				s0.762-1.701,1.701-1.701C327.522,157.641,328.283,158.403,328.283,159.343z"/>
		</g>
		<g>
			<path style="fill:#ACC3EB;" d="M333.388,137.593c0,0.665-0.539,1.203-1.203,1.203c-0.664,0-1.203-0.539-1.203-1.203
				c0-0.664,0.539-1.203,1.203-1.203C332.849,136.39,333.388,136.928,333.388,137.593z"/>
		</g>
		<g>
			<path style="fill:#ACC3EB;" d="M329.644,158.387c-0.599,0-1.085-0.487-1.085-1.085s0.486-1.085,1.085-1.085
				s1.085,0.487,1.085,1.085S330.243,158.387,329.644,158.387z M329.644,156.71c-0.326,0-0.593,0.266-0.593,0.592
				c0,0.327,0.267,0.592,0.593,0.592s0.593-0.266,0.593-0.592C330.237,156.975,329.97,156.71,329.644,156.71z"/>
		</g>
	</g>
</g>
<g id="DESIGNED_BY_FREEPIK">
	<g id="XMLID_258_">
		<g id="XMLID_287_">
			<g id="XMLID_306_">
				<path id="XMLID_314_" style="fill:#9EB7C7;" d="M260.104,465.465c-0.433,0.443-0.804,0.932-1.108,1.453l-0.465-0.241
					c-0.067-0.297-0.35-0.502-0.659-0.466c-0.331,0.039-0.567,0.339-0.529,0.67c0.039,0.331,0.339,0.567,0.67,0.528
					c0.065-0.007,0.127-0.025,0.184-0.052l0.451,0.234c-0.251,0.554-0.433,1.139-0.539,1.743l0.747,0.132
					c0.229-1.306,0.85-2.507,1.792-3.473L260.104,465.465z"/>
				<path id="XMLID_313_" style="fill:#9EB7C7;" d="M265.591,463.164c-0.171,0-0.341,0.006-0.509,0.017l-0.074-0.626
					c0.188-0.149,0.296-0.389,0.266-0.645c-0.046-0.393-0.402-0.674-0.795-0.628c-0.394,0.046-0.675,0.402-0.628,0.796
					c0.03,0.254,0.189,0.461,0.404,0.563l0.073,0.624c-0.714,0.116-1.402,0.332-2.06,0.646l0.327,0.685
					c0.935-0.447,1.941-0.674,2.995-0.674c0.497,0,0.993,0.053,1.476,0.158l0.16-0.741
					C266.692,463.222,266.142,463.164,265.591,463.164z"/>
				<path id="XMLID_312_" style="fill:#9EB7C7;" d="M272.194,465.711c0.331-0.04,0.566-0.341,0.525-0.672
					c-0.04-0.331-0.341-0.566-0.672-0.525c-0.31,0.038-0.535,0.304-0.53,0.608l-0.416,0.363c-0.418-0.43-0.89-0.813-1.407-1.14
					l-0.404,0.642c1.135,0.715,2.021,1.727,2.564,2.925l0.69-0.313c-0.251-0.554-0.567-1.071-0.942-1.545l0.402-0.351
					C272.065,465.715,272.128,465.719,272.194,465.711z"/>
				<path id="XMLID_311_" style="fill:#9EB7C7;" d="M265.044,473.372c-0.386,0.023-0.775,0.035-1.157,0.035
					c-0.88,0-1.733-0.061-2.479-0.18c-0.391-0.062-0.846-0.154-1.271-0.292c1.047,1.861,3.069,3.125,5.389,3.125
					c2.855,0,5.263-1.916,5.949-4.503c-0.682,0.449-1.505,0.825-2.458,1.122C267.838,473.047,266.463,473.287,265.044,473.372z"/>
				<path id="XMLID_307_" style="fill:#9EB7C7;" d="M265.591,464.68c-3.351,0-6.079,2.666-6.079,5.943
					c0,0.425,0.046,0.849,0.137,1.261c0.674,0.483,2.706,0.891,5.348,0.731c2.88-0.174,5.297-0.958,6.672-2.159
					c-0.005-0.194-0.02-0.39-0.045-0.581C271.244,466.914,268.65,464.68,265.591,464.68z M263.432,471.195
					c-1.02,0-1.85-0.83-1.85-1.85c0-1.021,0.83-1.851,1.85-1.851c1.02,0,1.85,0.83,1.85,1.851
					C265.282,470.365,264.452,471.195,263.432,471.195z M268.169,470.287c-0.75,0-1.36-0.61-1.36-1.36s0.61-1.36,1.36-1.36
					s1.36,0.61,1.36,1.36S268.919,470.287,268.169,470.287z"/>
			</g>
			<path id="XMLID_304_" style="fill:#9EB7C7;" d="M281.595,466.547c-0.295-0.116-0.806-0.31-1.383-0.238
				c-0.551,0.069-0.844,0.341-0.844,1.007v0.866h2.229v1.717h-2.229v5.455h-1.932v-5.455h-1.339v-1.717h1.339v-0.889
				c0-1.68,0.896-2.782,2.568-2.782c0.643,0,1.157,0.121,1.59,0.308V466.547z"/>
			<path id="XMLID_302_" style="fill:#9EB7C7;" d="M286.297,469.878c-0.177-0.029-0.357-0.046-0.525-0.046
				c-0.896,0-1.51,0.548-1.51,1.613v3.908h-1.933v-7.172h1.873v0.784c0.451-0.673,1.14-0.977,2.021-0.977
				c0.414,0,0.848,0.128,1.095,0.337L286.297,469.878z"/>
			<path id="XMLID_299_" style="fill:#9EB7C7;" d="M293.965,471.757c0,0.222-0.016,0.488-0.037,0.651h-5.085
				c0.207,1.036,0.933,1.487,1.843,1.487c0.622,0,1.295-0.252,1.813-0.689l1.133,1.243c-0.814,0.748-1.851,1.089-3.057,1.089
				c-2.198,0-3.724-1.496-3.724-3.753c0-2.258,1.48-3.797,3.627-3.797C292.543,467.99,293.958,469.522,293.965,471.757z
				 M288.851,471.091h3.175c-0.178-0.918-0.732-1.437-1.561-1.437C289.554,469.655,289.021,470.203,288.851,471.091z"/>
			<path id="XMLID_296_" style="fill:#9EB7C7;" d="M301.619,471.757c0,0.222-0.016,0.488-0.037,0.651h-5.085
				c0.207,1.036,0.933,1.487,1.843,1.487c0.622,0,1.296-0.252,1.814-0.689l1.133,1.243c-0.815,0.748-1.851,1.089-3.058,1.089
				c-2.198,0-3.723-1.496-3.723-3.753c0-2.258,1.48-3.797,3.627-3.797C300.197,467.99,301.611,469.522,301.619,471.757z
				 M296.504,471.091h3.175c-0.178-0.918-0.733-1.437-1.561-1.437C297.208,469.655,296.674,470.203,296.504,471.091z"/>
			<path id="XMLID_293_" style="fill:#9EB7C7;" d="M309.964,471.764c0,2.154-1.495,3.775-3.472,3.775
				c-0.962,0-1.644-0.378-2.109-0.933v3.708h-1.925v-10.133h1.888v0.792c0.467-0.585,1.154-0.984,2.139-0.984
				C308.469,467.99,309.964,469.611,309.964,471.764z M304.287,471.764c0,1.133,0.748,1.977,1.844,1.977
				c1.14,0,1.85-0.881,1.85-1.977c0-1.095-0.71-1.976-1.85-1.976C305.035,469.789,304.287,470.632,304.287,471.764z"/>
			<path id="XMLID_290_" style="fill:#9EB7C7;" d="M313.068,465.836c0,0.696-0.541,1.229-1.236,1.229
				c-0.696,0-1.229-0.533-1.229-1.229c0-0.695,0.532-1.243,1.229-1.243C312.527,464.592,313.068,465.14,313.068,465.836z
				 M312.808,475.354h-1.932v-7.172h1.932V475.354z"/>
			<path id="XMLID_288_" style="fill:#9EB7C7;" d="M316.032,470.736l2.702-2.554h2.368l-3.478,3.375l3.501,3.797h-2.376
				l-2.717-2.901v2.901H314.1v-10.658h1.932V470.736z"/>
		</g>
		<g id="XMLID_259_">
			<path id="XMLID_284_" style="fill:#9EB7C7;" d="M184.412,475.29v-1.055c-0.527,0.718-1.391,1.23-2.387,1.23
				c-1.846,0-3.149-1.406-3.149-3.706c0-2.256,1.289-3.721,3.149-3.721c0.952,0,1.816,0.469,2.387,1.245v-3.765h1.099v9.771H184.412
				z M184.412,473.371v-3.208c-0.395-0.615-1.245-1.143-2.124-1.143c-1.42,0-2.27,1.172-2.27,2.739c0,1.567,0.85,2.725,2.27,2.725
				C183.167,474.484,184.017,473.986,184.412,473.371z"/>
			<path id="XMLID_281_" style="fill:#9EB7C7;" d="M186.932,471.745c0-2.051,1.465-3.706,3.486-3.706
				c2.139,0,3.398,1.67,3.398,3.794v0.278h-5.727c0.088,1.333,1.025,2.446,2.549,2.446c0.806,0,1.626-0.322,2.182-0.894l0.527,0.718
				c-0.703,0.703-1.655,1.084-2.812,1.084C188.44,475.465,186.932,473.957,186.932,471.745z M190.403,468.947
				c-1.509,0-2.256,1.274-2.314,2.358h4.644C192.718,470.25,192.015,468.947,190.403,468.947z"/>
			<path id="XMLID_279_" style="fill:#9EB7C7;" d="M194.607,474.352l0.571-0.791c0.469,0.542,1.362,1.011,2.329,1.011
				c1.084,0,1.67-0.513,1.67-1.216c0-1.714-4.38-0.659-4.38-3.281c0-1.099,0.952-2.036,2.636-2.036c1.202,0,2.051,0.454,2.623,1.025
				l-0.513,0.762c-0.424-0.513-1.201-0.894-2.109-0.894c-0.966,0-1.567,0.483-1.567,1.113c0,1.553,4.379,0.527,4.379,3.281
				c0,1.187-0.952,2.139-2.783,2.139C196.306,475.465,195.325,475.114,194.607,474.352z"/>
			<path id="XMLID_276_" style="fill:#9EB7C7;" d="M201.477,466.471c0-0.41,0.337-0.747,0.732-0.747c0.41,0,0.747,0.337,0.747,0.747
				c0,0.41-0.337,0.732-0.747,0.732C201.814,467.204,201.477,466.881,201.477,466.471z M201.667,475.29v-7.075h1.099v7.075H201.667z
				"/>
			<path id="XMLID_273_" style="fill:#9EB7C7;" d="M204.582,477.106l0.556-0.82c0.586,0.703,1.289,0.967,2.3,0.967
				c1.172,0,2.27-0.571,2.27-2.124v-1.011c-0.513,0.718-1.377,1.26-2.373,1.26c-1.846,0-3.149-1.377-3.149-3.662
				c0-2.271,1.289-3.677,3.149-3.677c0.952,0,1.802,0.469,2.373,1.245v-1.069h1.099v6.87c0,2.344-1.641,3.076-3.369,3.076
				C206.237,478.161,205.416,477.925,204.582,477.106z M209.708,473.253v-3.091c-0.381-0.615-1.23-1.143-2.109-1.143
				c-1.421,0-2.27,1.128-2.27,2.695c0,1.553,0.849,2.695,2.27,2.695C208.478,474.411,209.328,473.869,209.708,473.253z"/>
			<path id="XMLID_271_" style="fill:#9EB7C7;" d="M217.413,475.29v-4.629c0-1.245-0.63-1.641-1.582-1.641
				c-0.864,0-1.685,0.527-2.094,1.099v5.171h-1.099v-7.075h1.099v1.025c0.497-0.586,1.464-1.201,2.519-1.201
				c1.48,0,2.256,0.747,2.256,2.285v4.966H217.413z"/>
			<path id="XMLID_268_" style="fill:#9EB7C7;" d="M219.932,471.745c0-2.051,1.465-3.706,3.486-3.706
				c2.139,0,3.398,1.67,3.398,3.794v0.278h-5.727c0.088,1.333,1.025,2.446,2.548,2.446c0.806,0,1.626-0.322,2.183-0.894l0.527,0.718
				c-0.703,0.703-1.655,1.084-2.813,1.084C221.441,475.465,219.932,473.957,219.932,471.745z M223.404,468.947
				c-1.509,0-2.256,1.274-2.314,2.358h4.643C225.718,470.25,225.015,468.947,223.404,468.947z"/>
			<path id="XMLID_265_" style="fill:#9EB7C7;" d="M233.35,475.29v-1.055c-0.527,0.718-1.392,1.23-2.388,1.23
				c-1.845,0-3.149-1.406-3.149-3.706c0-2.256,1.289-3.721,3.149-3.721c0.952,0,1.817,0.469,2.388,1.245v-3.765h1.098v9.771H233.35z
				 M233.35,473.371v-3.208c-0.396-0.615-1.245-1.143-2.124-1.143c-1.421,0-2.27,1.172-2.27,2.739c0,1.567,0.85,2.725,2.27,2.725
				C232.105,474.484,232.954,473.986,233.35,473.371z"/>
			<path id="XMLID_262_" style="fill:#9EB7C7;" d="M239.692,475.29v-9.771h1.099v3.765c0.571-0.776,1.421-1.245,2.388-1.245
				c1.845,0,3.149,1.465,3.149,3.721c0,2.3-1.304,3.706-3.149,3.706c-0.996,0-1.86-0.513-2.388-1.23v1.055H239.692z M242.9,474.484
				c1.436,0,2.285-1.157,2.285-2.725c0-1.567-0.85-2.739-2.285-2.739c-0.864,0-1.729,0.527-2.109,1.143v3.208
				C241.171,473.986,242.036,474.484,242.9,474.484z"/>
			<path id="XMLID_260_" style="fill:#9EB7C7;" d="M247.528,477.062c0.161,0.073,0.425,0.117,0.6,0.117
				c0.483,0,0.806-0.161,1.055-0.747l0.469-1.069l-2.959-7.148h1.187l2.358,5.801l2.344-5.801h1.2l-3.544,8.511
				c-0.425,1.024-1.143,1.421-2.08,1.436c-0.234,0-0.6-0.044-0.806-0.104L247.528,477.062z"/>
		</g>
	</g>
</g>
</svg>
